<svg width="1614" height="600" viewBox="0 0 1614 600" fill="none" xmlns="http://www.w3.org/2000/svg">
<path fill-rule="evenodd" clip-rule="evenodd" d="M1614.46 0H244.46V1.08033H265.341V598H276.861V1.08033H1614.46V0ZM1.44 126H0L22.5 0.179688H26.46L54.36 126H42.66L33.84 86.7597H8.46L1.44 126ZM20.16 21.4197H19.8L18.54 28.4397L8.64 85.6797H33.48L21.6 28.4397L20.16 21.4197ZM115.246 126V0.179688H126.766V62.6397H156.646V0.179688H168.166V126H156.646V63.7197H126.766V126H115.246ZM196.668 0.179688V126H235.368V124.92H208.188V62.2797H231.588V61.1997H208.188V1.2597H235.368V0.179688H196.668ZM637.597 577.4C636.797 572.734 636.864 567.6 637.797 562L649.997 493C650.931 487.534 652.597 482.6 654.997 478.2C657.531 473.667 660.531 469.8 663.997 466.6C667.597 463.4 671.664 460.934 676.197 459.2C680.731 457.334 685.531 456.4 690.597 456.4C695.531 456.4 699.931 457.334 703.797 459.2C707.664 460.934 710.797 463.4 713.197 466.6C715.597 469.8 717.197 473.667 717.997 478.2C718.931 482.6 718.864 487.534 717.797 493L705.597 562C704.797 567.6 703.131 572.734 700.597 577.4C698.064 581.934 694.997 585.934 691.397 589.4C687.931 592.734 683.931 595.267 679.397 597C674.997 598.734 670.197 599.6 664.997 599.6C659.931 599.6 655.464 598.734 651.597 597C647.864 595.134 644.797 592.6 642.397 589.4C639.997 586.067 638.397 582.067 637.597 577.4ZM672.997 471C671.797 473.934 670.864 477.267 670.197 481L653.597 575.2C652.931 578.934 652.664 582.334 652.797 585.4C653.064 588.334 653.664 590.8 654.597 592.8C655.531 594.667 656.864 596.067 658.597 597C660.464 597.934 662.731 598.4 665.397 598.4C668.064 598.4 670.397 597.934 672.397 597C674.531 596.067 676.464 594.6 678.197 592.6C679.931 590.6 681.331 588.2 682.397 585.4C683.597 582.467 684.531 579.067 685.197 575.2L701.997 481C702.664 477.134 702.931 473.734 702.797 470.8C702.664 467.867 702.064 465.467 700.997 463.6C700.064 461.6 698.664 460.134 696.797 459.2C695.064 458.134 692.931 457.6 690.397 457.6C687.731 457.6 685.331 458.134 683.197 459.2C681.064 460.134 679.131 461.6 677.397 463.6C675.797 465.6 674.331 468.067 672.997 471ZM564.26 598H546.26L571.06 458.2H637.46L612.66 598H594.46L619.06 459.4H588.86L564.26 598ZM786.772 598L774.372 539.6C773.706 536.4 772.839 533.8 771.772 531.8C770.839 529.667 769.706 528 768.372 526.8C767.039 525.6 765.506 524.8 763.772 524.4C762.039 524 760.172 523.8 758.172 523.8H756.156L801.172 458.2H799.172L754.401 523.8H747.829L759.372 458.2H741.372L716.572 598H734.772L747.618 525H748.372C750.372 525.134 751.906 525.867 752.972 527.2C754.039 528.534 754.906 531.067 755.572 534.8L767.972 598H786.772ZM795.658 598H794.058L845.658 458.2H850.858L860.058 598H841.458L838.458 554.4H811.658L795.658 598ZM835.058 491.2H834.658L831.658 499.2L812.258 553.2H838.458L835.658 499.2L835.058 491.2ZM896.786 599.6C902.92 599.6 908.653 598.8 913.986 597.2C919.453 595.6 924.253 593.334 928.386 590.4C932.52 587.467 935.986 583.867 938.786 579.6C941.586 575.2 943.453 570.267 944.386 564.8L945.986 555.8C946.786 551.267 946.853 547.267 946.186 543.8C945.52 540.334 944.186 537.4 942.186 535C940.186 532.467 937.586 530.467 934.386 529C931.32 527.534 927.653 526.667 923.386 526.4L919.186 526L919.386 525.2L923.786 525C927.786 524.734 931.453 523.934 934.786 522.6C938.253 521.134 941.253 519.267 943.786 517C946.453 514.6 948.653 511.667 950.386 508.2C952.253 504.6 953.586 500.6 954.386 496.2L955.586 489C956.52 483.934 956.453 479.4 955.386 475.4C954.32 471.4 952.386 468 949.586 465.2C946.786 462.4 943.253 460.267 938.986 458.8C934.72 457.2 929.853 456.4 924.386 456.4C918.12 456.4 912.053 457.4 906.186 459.4C900.32 461.4 895.253 464.267 890.986 468L891.786 468.8C895.52 465.6 899.653 463.134 904.186 461.4C908.853 459.667 913.32 458.8 917.586 458.8C925.186 458.8 930.853 461.467 934.586 466.8C938.32 472 939.386 479.334 937.786 488.8L936.186 497.2C934.586 506.4 931.453 513.334 926.786 518C922.12 522.667 916.386 525 909.586 525H904.986L904.786 526.2H909.386C913.12 526.2 916.32 526.8 918.986 528C921.786 529.2 923.986 531 925.586 533.4C927.32 535.667 928.386 538.534 928.786 542C929.186 545.467 929.053 549.467 928.386 554L926.186 565.6C924.453 575.734 920.32 583.6 913.786 589.2C907.386 594.667 899.72 597.4 890.786 597.4C886.653 597.4 882.52 596.8 878.386 595.6C874.386 594.4 870.453 592.6 866.586 590.2L865.786 591.2C869.92 594 874.653 596.134 879.986 597.6C885.32 598.934 890.92 599.6 896.786 599.6ZM944.682 598H943.082L994.682 458.2H999.882L1009.08 598H990.482L987.482 554.4H960.682L944.682 598ZM984.082 491.2H983.682L980.682 499.2L961.282 553.2H987.482L984.682 499.2L984.082 491.2ZM1009.89 595.8C1011.89 597.134 1014.02 598.067 1016.29 598.6C1018.55 599.267 1020.95 599.6 1023.49 599.6C1027.22 599.6 1030.82 598.734 1034.29 597C1037.75 595.267 1040.95 592.6 1043.89 589C1046.82 585.267 1049.49 580.6 1051.89 575C1054.42 569.267 1056.49 562.467 1058.09 554.6L1078.49 459.4H1107.89L1083.49 598H1101.49L1126.09 458.2H1060.69L1037.69 567.4C1036.49 573.4 1035.22 578.334 1033.89 582.2C1032.55 585.934 1031.15 589 1029.69 591.4C1028.35 593.667 1026.89 595.267 1025.29 596.2C1023.69 597.134 1022.02 597.6 1020.29 597.6C1018.55 597.6 1016.95 597.4 1015.49 597C1013.89 596.467 1012.29 595.667 1010.69 594.6L1009.89 595.8ZM1126.46 577.4C1125.66 572.734 1125.73 567.6 1126.66 562L1138.86 493C1139.8 487.534 1141.46 482.6 1143.86 478.2C1146.4 473.667 1149.4 469.8 1152.86 466.6C1156.46 463.4 1160.53 460.934 1165.06 459.2C1169.6 457.334 1174.4 456.4 1179.46 456.4C1184.4 456.4 1188.8 457.334 1192.66 459.2C1196.53 460.934 1199.66 463.4 1202.06 466.6C1204.46 469.8 1206.06 473.667 1206.86 478.2C1207.8 482.6 1207.73 487.534 1206.66 493L1194.46 562C1193.66 567.6 1192 572.734 1189.46 577.4C1186.93 581.934 1183.86 585.934 1180.26 589.4C1176.8 592.734 1172.8 595.267 1168.26 597C1163.86 598.734 1159.06 599.6 1153.86 599.6C1148.8 599.6 1144.33 598.734 1140.46 597C1136.73 595.134 1133.66 592.6 1131.26 589.4C1128.86 586.067 1127.26 582.067 1126.46 577.4ZM1161.86 471C1160.66 473.934 1159.73 477.267 1159.06 481L1142.46 575.2C1141.8 578.934 1141.53 582.334 1141.66 585.4C1141.93 588.334 1142.53 590.8 1143.46 592.8C1144.4 594.667 1145.73 596.067 1147.46 597C1149.33 597.934 1151.6 598.4 1154.26 598.4C1156.93 598.4 1159.26 597.934 1161.26 597C1163.4 596.067 1165.33 594.6 1167.06 592.6C1168.8 590.6 1170.2 588.2 1171.26 585.4C1172.46 582.467 1173.4 579.067 1174.06 575.2L1190.86 481C1191.53 477.134 1191.8 473.734 1191.66 470.8C1191.53 467.867 1190.93 465.467 1189.86 463.6C1188.93 461.6 1187.53 460.134 1185.66 459.2C1183.93 458.134 1181.8 457.6 1179.26 457.6C1176.6 457.6 1174.2 458.134 1172.06 459.2C1169.93 460.134 1168 461.6 1166.26 463.6C1164.66 465.6 1163.2 468.067 1161.86 471ZM1212.21 561.8C1211.28 567.534 1211.14 572.734 1211.81 577.4C1212.61 582.067 1214.21 586.067 1216.61 589.4C1219.01 592.734 1222.14 595.267 1226.01 597C1229.88 598.734 1234.34 599.6 1239.41 599.6C1246.74 599.6 1253.34 597.934 1259.21 594.6C1265.21 591.134 1270.08 586.267 1273.81 580L1272.61 579.4C1271.14 582.2 1269.28 584.734 1267.01 587C1264.88 589.267 1262.48 591.2 1259.81 592.8C1257.14 594.4 1254.28 595.667 1251.21 596.6C1248.14 597.534 1245.08 598 1242.01 598C1235.88 598 1231.68 596.067 1229.41 592.2C1227.14 588.334 1226.74 582.134 1228.21 573.6L1244.61 481.6C1245.94 474 1248.54 468.2 1252.41 464.2C1256.41 460.2 1261.48 458.2 1267.61 458.2C1271.88 458.2 1275.68 459.067 1279.01 460.8C1282.48 462.534 1285.41 465.067 1287.81 468.4L1288.81 467.6C1286.01 463.867 1282.61 461.067 1278.61 459.2C1274.61 457.334 1270.01 456.4 1264.81 456.4C1259.61 456.4 1254.74 457.334 1250.21 459.2C1245.81 460.934 1241.81 463.4 1238.21 466.6C1234.74 469.8 1231.81 473.667 1229.41 478.2C1227.01 482.734 1225.34 487.734 1224.41 493.2L1212.21 561.8ZM1305.63 458.2H1323.63L1312.83 519.4H1325.83C1330.5 519.4 1334.63 520.267 1338.23 522C1341.96 523.6 1345.03 525.934 1347.43 529C1349.83 531.934 1351.5 535.467 1352.43 539.6C1353.5 543.6 1353.56 548 1352.63 552.8L1350.43 565.4C1349.63 569.934 1348.1 574.2 1345.83 578.2C1343.56 582.067 1340.83 585.467 1337.63 588.4C1334.43 591.334 1330.83 593.667 1326.83 595.4C1322.96 597.134 1318.96 598 1314.83 598H1280.83L1305.63 458.2ZM1328.43 583C1329.63 579.8 1330.63 575.867 1331.43 571.2L1335.63 546.8C1337.23 538.134 1336.96 531.6 1334.83 527.2C1332.83 522.8 1329.36 520.6 1324.43 520.6H1312.63L1299.03 596.8H1311.83C1314.5 596.8 1316.83 596.334 1318.83 595.4C1320.83 594.467 1322.63 593 1324.23 591C1325.83 588.867 1327.23 586.2 1328.43 583Z" fill="#111111"/>
</svg>
