<svg width="300" height="217" viewBox="0 0 300 217" fill="none" xmlns="http://www.w3.org/2000/svg">
<path fill-rule="evenodd" clip-rule="evenodd" d="M300 0H95.0498V0.419634H103.169V201.164L97.8196 216H99.1196L104.06 202.22H112.445L113.225 216H119.27L116.67 170.565H114.2L107.648 188.739V0.419634L300 0.419635V0ZM0.559897 49.6009H0L8.74839 0.728516H10.2881L21.1361 49.6009H16.5869L13.1576 34.3589H3.28939L0.559897 49.6009ZM7.83856 8.9788H7.69858L7.20867 11.7056L3.35938 33.9394H13.0176L8.39845 11.7056L7.83856 8.9788ZM44.8098 49.6009V0.728516H49.289V24.9899H60.9068V0.728516H65.386V49.6009H60.9068V25.4094H49.289V49.6009H44.8098ZM76.468 0.728516V49.6009H91.5153V49.1814H80.9472V24.8501H90.0455V24.4306H80.9472V1.14802H91.5153V0.728516H76.468ZM46.9698 209.305C46.7098 207.789 46.7315 206.12 47.0348 204.3L50.9998 181.875C51.3032 180.099 51.8448 178.495 52.6248 177.065C53.4482 175.592 54.4232 174.335 55.5498 173.295C56.7198 172.255 58.0415 171.454 59.5148 170.89C60.9882 170.284 62.5265 169.98 64.1298 169.98C65.7765 169.98 67.2282 170.284 68.4848 170.89C69.7415 171.454 70.7598 172.255 71.5398 173.295C72.3198 174.335 72.8398 175.592 73.0998 177.065C73.3598 178.495 73.3382 180.099 73.0349 181.875L69.0698 204.3C68.7665 206.12 68.2032 207.789 67.3798 209.305C66.5998 210.779 65.6248 212.079 64.4548 213.205C63.3282 214.289 62.0282 215.112 60.5548 215.675C59.0815 216.239 57.5215 216.52 55.8748 216.52C54.2282 216.52 52.7765 216.239 51.5198 215.675C50.3065 215.069 49.3098 214.245 48.5298 213.205C47.7498 212.122 47.2298 210.822 46.9698 209.305ZM58.3448 175.375C57.9548 176.285 57.6515 177.325 57.4348 178.495L52.2998 208.07C52.0832 209.24 51.9965 210.28 52.0398 211.19C52.1265 212.1 52.3215 212.88 52.6248 213.53C52.9715 214.137 53.4265 214.592 53.9898 214.895C54.5965 215.199 55.3115 215.35 56.1348 215.35C56.9582 215.35 57.7165 215.199 58.4098 214.895C59.1032 214.592 59.7098 214.137 60.2298 213.53C60.7932 212.88 61.2698 212.1 61.6598 211.19C62.0498 210.28 62.3315 209.24 62.5048 208.07L67.7698 178.495C67.9865 177.325 68.0515 176.285 67.9648 175.375C67.9215 174.465 67.7265 173.707 67.3798 173.1C67.0765 172.45 66.6215 171.974 66.0148 171.67C65.4515 171.367 64.7582 171.215 63.9348 171.215C63.1115 171.215 62.3532 171.389 61.6598 171.735C60.9665 172.039 60.3382 172.494 59.7748 173.1C59.2115 173.707 58.7348 174.465 58.3448 175.375ZM23.1352 216H17.2852L25.3452 170.565H46.9252L38.8652 216H32.9502L40.8152 171.735H31.0002L23.1352 216ZM95.4517 216L91.4867 197.28C91.2701 196.154 90.9884 195.222 90.6417 194.485C90.2951 193.749 89.8834 193.164 89.4067 192.73C88.9734 192.254 88.4534 191.929 87.8467 191.755C87.3826 191.623 86.8677 191.541 86.3021 191.51L100.652 170.565H99.1567L84.8722 191.495H82.8638L86.5467 170.565H80.6967L72.6367 216H78.5517L82.6579 192.665H82.8417C83.4917 192.709 84.0117 192.925 84.4017 193.315C84.8351 193.705 85.1817 194.572 85.4417 195.915L89.3417 216H95.4517ZM111.6 181.875H111.21L110.365 184.475L104.515 201.05H112.38L111.6 184.475V181.875ZM131.206 216.52C133.2 216.52 135.063 216.26 136.796 215.74C138.573 215.22 140.133 214.484 141.476 213.53C142.82 212.577 143.946 211.407 144.856 210.02C145.766 208.59 146.373 206.987 146.676 205.21L147.196 202.285C147.456 200.812 147.478 199.512 147.261 198.385C147.045 197.259 146.611 196.305 145.961 195.525C145.355 194.745 144.531 194.139 143.491 193.705C142.451 193.229 141.26 192.925 139.916 192.795L138.681 192.665L138.746 192.34L140.046 192.21C141.346 192.08 142.538 191.799 143.621 191.365C144.748 190.932 145.723 190.347 146.546 189.61C147.37 188.83 148.063 187.877 148.626 186.75C149.233 185.624 149.666 184.345 149.926 182.915L150.316 180.575C150.62 178.929 150.598 177.455 150.251 176.155C149.905 174.855 149.276 173.75 148.366 172.84C147.456 171.93 146.308 171.237 144.921 170.76C143.535 170.24 141.953 169.98 140.176 169.98C138.14 169.98 136.168 170.305 134.261 170.955C132.355 171.605 130.708 172.537 129.321 173.75L130.036 174.595C131.293 173.642 132.636 172.905 134.066 172.385C135.496 171.822 136.883 171.54 138.226 171.54C140.566 171.54 142.321 172.342 143.491 173.945C144.661 175.549 144.986 177.78 144.466 180.64L144.011 183.175C143.491 186.035 142.473 188.202 140.956 189.675C139.44 191.149 137.598 191.885 135.431 191.885H133.936L133.741 193.12H135.236C136.406 193.12 137.425 193.315 138.291 193.705C139.201 194.052 139.916 194.594 140.436 195.33C141 196.067 141.368 196.977 141.541 198.06C141.715 199.144 141.693 200.379 141.476 201.765L140.826 205.34C140.263 208.46 138.963 210.887 136.926 212.62C134.933 214.31 132.571 215.155 129.841 215.155C128.541 215.155 127.22 214.96 125.876 214.57C124.576 214.18 123.276 213.595 121.976 212.815L121.131 213.79C122.475 214.7 124.013 215.394 125.746 215.87C127.48 216.304 129.3 216.52 131.206 216.52ZM147.552 216H146.252L162.632 170.565H165.102L167.702 216H161.657L160.877 202.22H152.492L147.552 216ZM160.032 181.875H159.642L158.797 184.475L152.947 201.05H160.812L160.032 184.475V181.875ZM167.964 215.285C168.614 215.719 169.308 216.022 170.044 216.195C170.781 216.412 171.561 216.52 172.384 216.52C173.598 216.52 174.768 216.239 175.894 215.675C177.021 215.112 178.061 214.245 179.014 213.075C179.968 211.862 180.834 210.345 181.614 208.525C182.394 206.662 183.066 204.452 183.629 201.895L190.129 171.735H199.619L191.884 216H197.734L205.729 170.565H184.474L176.999 206.055C176.609 207.832 176.219 209.305 175.829 210.475C175.439 211.645 175.028 212.577 174.594 213.27C174.161 213.964 173.684 214.44 173.164 214.7C172.688 214.96 172.168 215.09 171.604 215.09C171.084 215.09 170.586 215.025 170.109 214.895C169.589 214.765 169.091 214.527 168.614 214.18L167.964 215.285ZM205.852 209.305C205.592 207.789 205.613 206.12 205.917 204.3L209.882 181.875C210.185 180.099 210.727 178.495 211.507 177.065C212.33 175.592 213.305 174.335 214.432 173.295C215.602 172.255 216.923 171.454 218.397 170.89C219.87 170.284 221.408 169.98 223.012 169.98C224.658 169.98 226.11 170.284 227.367 170.89C228.623 171.454 229.642 172.255 230.422 173.295C231.202 174.335 231.722 175.592 231.982 177.065C232.242 178.495 232.22 180.099 231.917 181.875L227.952 204.3C227.648 206.12 227.085 207.789 226.262 209.305C225.482 210.779 224.507 212.079 223.337 213.205C222.21 214.289 220.91 215.112 219.437 215.675C217.963 216.239 216.403 216.52 214.757 216.52C213.11 216.52 211.658 216.239 210.402 215.675C209.188 215.069 208.192 214.245 207.412 213.205C206.632 212.122 206.112 210.822 205.852 209.305ZM217.227 175.375C216.837 176.285 216.533 177.325 216.317 178.495L211.182 208.07C210.965 209.24 210.878 210.28 210.922 211.19C211.008 212.1 211.203 212.88 211.507 213.53C211.853 214.137 212.308 214.592 212.872 214.895C213.478 215.199 214.193 215.35 215.017 215.35C215.84 215.35 216.598 215.199 217.292 214.895C217.985 214.592 218.592 214.137 219.112 213.53C219.675 212.88 220.152 212.1 220.542 211.19C220.932 210.28 221.213 209.24 221.387 208.07L226.652 178.495C226.868 177.325 226.933 176.285 226.847 175.375C226.803 174.465 226.608 173.707 226.262 173.1C225.958 172.45 225.503 171.974 224.897 171.67C224.333 171.367 223.64 171.215 222.817 171.215C221.993 171.215 221.235 171.389 220.542 171.735C219.848 172.039 219.22 172.494 218.657 173.1C218.093 173.707 217.617 174.465 217.227 175.375ZM233.719 204.235C233.416 206.099 233.373 207.789 233.589 209.305C233.849 210.822 234.369 212.122 235.149 213.205C235.929 214.289 236.948 215.112 238.204 215.675C239.461 216.239 240.934 216.52 242.624 216.52C244.964 216.52 247.088 215.979 248.994 214.895C250.944 213.812 252.526 212.23 253.739 210.15L252.699 209.695C252.179 210.519 251.594 211.277 250.944 211.97C250.294 212.664 249.579 213.249 248.799 213.725C248.019 214.159 247.174 214.505 246.264 214.765C245.398 215.025 244.509 215.155 243.599 215.155C241.649 215.155 240.284 214.549 239.504 213.335C238.724 212.079 238.573 210.194 239.049 207.68L244.184 178.56C244.574 176.264 245.398 174.509 246.654 173.295C247.954 172.039 249.579 171.41 251.529 171.41C252.786 171.41 253.913 171.67 254.909 172.19C255.906 172.667 256.816 173.425 257.639 174.465L258.614 173.62C257.704 172.407 256.599 171.497 255.299 170.89C253.999 170.284 252.504 169.98 250.814 169.98C249.124 169.98 247.543 170.284 246.069 170.89C244.639 171.454 243.339 172.255 242.169 173.295C241.043 174.335 240.089 175.592 239.309 177.065C238.529 178.539 237.988 180.164 237.684 181.94L233.719 204.235ZM269.931 170.565L266.421 190.455H270.646C272.162 190.455 273.505 190.737 274.676 191.3C275.889 191.82 276.885 192.579 277.665 193.575C278.445 194.529 278.987 195.677 279.29 197.02C279.637 198.32 279.659 199.75 279.355 201.31L278.641 205.405C278.38 206.879 277.882 208.265 277.146 209.565C276.409 210.822 275.521 211.927 274.48 212.88C273.44 213.834 272.271 214.592 270.971 215.155C269.714 215.719 268.414 216 267.07 216H256.021L264.081 170.565H269.931ZM271.556 210.41C271.945 209.37 272.271 208.114 272.531 206.64L273.701 200.01C274.22 197.237 274.134 195.157 273.441 193.77C272.791 192.34 271.664 191.625 270.06 191.625H266.226L262.065 214.83H266.29C267.07 214.83 267.786 214.679 268.435 214.375C269.129 214.029 269.736 213.53 270.255 212.88C270.776 212.23 271.209 211.407 271.556 210.41Z" fill="#111111"/>
</svg>
