<svg width="738" height="349" viewBox="0 0 738 349" fill="none" xmlns="http://www.w3.org/2000/svg">
<path fill-rule="evenodd" clip-rule="evenodd" d="M738 0H144.039V0.635913H156.342V348H163.13V0.635913L738 0.635915V0ZM0.848468 75.1668H0L13.2573 1.10547H15.5906L32.0297 75.1668H25.1359L19.939 52.069H4.98475L0.848468 75.1668ZM11.8786 13.608H11.6664L10.924 17.7401L5.09081 51.4333H19.7269L12.727 17.7401L11.8786 13.608ZM67.9048 75.1668V1.10547H74.6925V37.8712H92.2982V1.10547H99.086V75.1668H92.2982V38.507H74.6925V75.1668H67.9048ZM115.88 1.10547V75.1668H138.682V74.5311H122.667V37.6593H136.455V37.0236H122.667V1.74119H138.682V1.10547H115.88ZM328.243 337.083C327.819 334.61 327.854 331.889 328.349 328.921L334.815 292.351C335.31 289.454 336.193 286.839 337.465 284.507C338.808 282.104 340.398 280.055 342.235 278.359C344.143 276.663 346.298 275.356 348.701 274.437C351.104 273.448 353.648 272.953 356.333 272.953C358.948 272.953 361.28 273.448 363.329 274.437C365.378 275.356 367.039 276.663 368.311 278.359C369.583 280.055 370.431 282.104 370.855 284.507C371.35 286.839 371.314 289.454 370.749 292.351L364.283 328.921C363.859 331.889 362.976 334.61 361.633 337.083C360.29 339.486 358.665 341.606 356.757 343.443C354.92 345.21 352.8 346.552 350.397 347.471C348.065 348.39 345.521 348.849 342.765 348.849C340.08 348.849 337.712 348.39 335.663 347.471C333.684 346.482 332.059 345.139 330.787 343.443C329.515 341.676 328.667 339.556 328.243 337.083ZM347.005 280.691C346.369 282.246 345.874 284.012 345.521 285.991L336.723 335.917C336.37 337.896 336.228 339.698 336.299 341.323C336.44 342.878 336.758 344.185 337.253 345.245C337.748 346.234 338.454 346.976 339.373 347.471C340.362 347.966 341.564 348.213 342.977 348.213C344.39 348.213 345.627 347.966 346.687 347.471C347.818 346.976 348.842 346.199 349.761 345.139C350.68 344.079 351.422 342.807 351.987 341.323C352.623 339.768 353.118 337.966 353.471 335.917L362.375 285.991C362.728 283.942 362.87 282.14 362.799 280.585C362.728 279.03 362.41 277.758 361.845 276.769C361.35 275.709 360.608 274.932 359.619 274.437C358.7 273.872 357.57 273.589 356.227 273.589C354.814 273.589 353.542 273.872 352.411 274.437C351.28 274.932 350.256 275.709 349.337 276.769C348.489 277.829 347.712 279.136 347.005 280.691ZM289.374 348.001H279.834L292.978 273.907H328.17L315.026 348.001H305.38L318.418 274.543H302.412L289.374 348.001ZM407.306 348.001L400.734 317.049C400.38 315.353 399.921 313.975 399.356 312.915C398.861 311.784 398.26 310.901 397.554 310.265C396.847 309.629 396.034 309.205 395.116 308.993C394.197 308.781 393.208 308.675 392.148 308.675H391.079L414.938 273.907H413.878L390.149 308.675H386.666L392.784 273.907H383.244L370.1 348.001H379.746L386.554 309.311H386.954C388.014 309.382 388.826 309.77 389.392 310.477C389.957 311.184 390.416 312.526 390.77 314.505L397.342 348.001H407.306ZM412.015 348.001H411.167L438.515 273.907H441.271L446.147 348.001H436.289L434.699 324.893H420.495L412.015 348.001ZM432.897 291.397H432.685L431.095 295.637L420.813 324.257H434.699L433.215 295.637L432.897 291.397ZM465.613 348.849C468.864 348.849 471.902 348.425 474.729 347.577C477.626 346.729 480.17 345.528 482.361 343.973C484.552 342.418 486.389 340.51 487.873 338.249C489.357 335.917 490.346 333.302 490.841 330.405L491.689 325.635C492.113 323.232 492.148 321.112 491.795 319.275C491.442 317.438 490.735 315.883 489.675 314.611C488.615 313.268 487.237 312.208 485.541 311.431C483.916 310.654 481.972 310.194 479.711 310.053L477.485 309.841L477.591 309.417L479.923 309.311C482.043 309.17 483.986 308.746 485.753 308.039C487.59 307.262 489.18 306.272 490.523 305.071C491.936 303.799 493.102 302.244 494.021 300.407C495.01 298.499 495.717 296.379 496.141 294.047L496.777 290.231C497.272 287.546 497.236 285.143 496.671 283.023C496.106 280.903 495.081 279.101 493.597 277.617C492.113 276.133 490.24 275.002 487.979 274.225C485.718 273.377 483.138 272.953 480.241 272.953C476.92 272.953 473.704 273.483 470.595 274.543C467.486 275.603 464.8 277.122 462.539 279.101L462.963 279.525C464.942 277.829 467.132 276.522 469.535 275.603C472.008 274.684 474.376 274.225 476.637 274.225C480.665 274.225 483.668 275.638 485.647 278.465C487.626 281.221 488.191 285.108 487.343 290.125L486.495 294.577C485.647 299.453 483.986 303.128 481.513 305.601C479.04 308.074 476.001 309.311 472.397 309.311H469.959L469.853 309.947H472.291C474.27 309.947 475.966 310.265 477.379 310.901C478.863 311.537 480.029 312.491 480.877 313.763C481.796 314.964 482.361 316.484 482.573 318.321C482.785 320.158 482.714 322.278 482.361 324.681L481.195 330.829C480.276 336.2 478.086 340.369 474.623 343.337C471.231 346.234 467.168 347.683 462.433 347.683C460.242 347.683 458.052 347.365 455.861 346.729C453.741 346.093 451.656 345.139 449.607 343.867L449.183 344.397C451.374 345.881 453.882 347.012 456.709 347.789C459.536 348.496 462.504 348.849 465.613 348.849ZM490.998 348.001H490.15L517.498 273.907H520.254L525.13 348.001H515.272L513.682 324.893H499.478L490.998 348.001ZM511.88 291.397H511.668L510.078 295.637L499.796 324.257H513.682L512.198 295.637L511.88 291.397ZM525.557 346.835C526.617 347.542 527.748 348.036 528.949 348.319C530.15 348.672 531.422 348.849 532.765 348.849C534.744 348.849 536.651 348.39 538.489 347.471C540.326 346.552 542.022 345.139 543.577 343.231C545.132 341.252 546.545 338.779 547.817 335.811C549.16 332.772 550.255 329.168 551.103 324.999L561.915 274.543H577.497L564.565 348.001H574.105L587.143 273.907H552.481L540.291 331.783C539.655 334.963 538.984 337.578 538.277 339.627C537.57 341.606 536.828 343.231 536.051 344.503C535.344 345.704 534.567 346.552 533.719 347.047C532.871 347.542 531.988 347.789 531.069 347.789C530.15 347.789 529.302 347.683 528.525 347.471C527.677 347.188 526.829 346.764 525.981 346.199L525.557 346.835ZM587.342 337.083C586.918 334.61 586.954 331.889 587.448 328.921L593.914 292.351C594.409 289.454 595.292 286.839 596.564 284.507C597.907 282.104 599.497 280.055 601.334 278.359C603.242 276.663 605.398 275.356 607.8 274.437C610.203 273.448 612.747 272.953 615.432 272.953C618.047 272.953 620.379 273.448 622.428 274.437C624.478 275.356 626.138 276.663 627.41 278.359C628.682 280.055 629.53 282.104 629.954 284.507C630.449 286.839 630.414 289.454 629.848 292.351L623.382 328.921C622.958 331.889 622.075 334.61 620.732 337.083C619.39 339.486 617.764 341.606 615.856 343.443C614.019 345.21 611.899 346.552 609.496 347.471C607.164 348.39 604.62 348.849 601.864 348.849C599.179 348.849 596.812 348.39 594.762 347.471C592.784 346.482 591.158 345.139 589.886 343.443C588.614 341.676 587.766 339.556 587.342 337.083ZM606.104 280.691C605.469 282.246 604.974 284.012 604.62 285.991L595.822 335.917C595.469 337.896 595.328 339.698 595.398 341.323C595.54 342.878 595.858 344.185 596.352 345.245C596.847 346.234 597.554 346.976 598.472 347.471C599.462 347.966 600.663 348.213 602.076 348.213C603.49 348.213 604.726 347.966 605.786 347.471C606.917 346.976 607.942 346.199 608.86 345.139C609.779 344.079 610.521 342.807 611.086 341.323C611.722 339.768 612.217 337.966 612.57 335.917L621.474 285.991C621.828 283.942 621.969 282.14 621.898 280.585C621.828 279.03 621.51 277.758 620.944 276.769C620.45 275.709 619.708 274.932 618.718 274.437C617.8 273.872 616.669 273.589 615.326 273.589C613.913 273.589 612.641 273.872 611.51 274.437C610.38 274.932 609.355 275.709 608.436 276.769C607.589 277.829 606.811 279.136 606.104 280.691ZM632.788 328.815C632.294 331.854 632.223 334.61 632.576 337.083C633 339.556 633.848 341.676 635.12 343.443C636.392 345.21 638.053 346.552 640.102 347.471C642.152 348.39 644.519 348.849 647.204 348.849C651.091 348.849 654.589 347.966 657.698 346.199C660.878 344.362 663.458 341.782 665.436 338.461L664.8 338.143C664.023 339.627 663.034 340.97 661.832 342.171C660.702 343.372 659.43 344.397 658.016 345.245C656.603 346.093 655.084 346.764 653.458 347.259C651.833 347.754 650.208 348.001 648.582 348.001C645.332 348.001 643.106 346.976 641.904 344.927C640.703 342.878 640.491 339.592 641.268 335.069L649.96 286.309C650.667 282.281 652.045 279.207 654.094 277.087C656.214 274.967 658.9 273.907 662.15 273.907C664.412 273.907 666.426 274.366 668.192 275.285C670.03 276.204 671.584 277.546 672.856 279.313L673.386 278.889C671.902 276.91 670.1 275.426 667.98 274.437C665.86 273.448 663.422 272.953 660.666 272.953C657.91 272.953 655.331 273.448 652.928 274.437C650.596 275.356 648.476 276.663 646.568 278.359C644.731 280.055 643.176 282.104 641.904 284.507C640.632 286.91 639.749 289.56 639.254 292.457L632.788 328.815ZM682.3 273.907H691.84L686.116 306.343H693.006C695.48 306.343 697.67 306.802 699.578 307.721C701.557 308.569 703.182 309.806 704.454 311.431C705.726 312.986 706.61 314.858 707.104 317.049C707.67 319.169 707.705 321.501 707.21 324.045L706.044 330.723C705.62 333.126 704.808 335.387 703.606 337.507C702.405 339.556 700.956 341.358 699.26 342.913C697.564 344.468 695.656 345.704 693.536 346.623C691.487 347.542 689.367 348.001 687.176 348.001H669.156L682.3 273.907ZM694.384 340.051C695.02 338.355 695.55 336.27 695.974 333.797L698.2 320.865C699.048 316.272 698.907 312.809 697.776 310.477C696.716 308.145 694.879 306.979 692.264 306.979H686.01L678.802 347.365H685.586C687 347.365 688.236 347.118 689.296 346.623C690.356 346.128 691.31 345.351 692.158 344.291C693.006 343.16 693.748 341.747 694.384 340.051Z" fill="#111111"/>
</svg>
