<svg width="50" height="50" viewBox="0 0 50 50" fill="none" xmlns="http://www.w3.org/2000/svg">
<rect width="50" height="50" rx="2" fill="#5899EF"/>
<g clip-path="url(#clip0_3400_2615)">
<path fill-rule="evenodd" clip-rule="evenodd" d="M36 25C36 31.0748 31.0748 36 25 36C18.9253 36 14 31.0748 14 25C14 18.9253 18.9253 14 25 14C31.0748 14 36 18.9253 36 25ZM25.3942 22.1208C24.3244 22.5653 22.1858 23.4866 18.9793 24.8836C18.4587 25.0908 18.1855 25.2933 18.1607 25.4913C18.1186 25.8268 18.5384 25.9588 19.1086 26.1376C19.1865 26.1623 19.2672 26.1871 19.3497 26.2146C19.9116 26.397 20.6669 26.6106 21.0593 26.6188C21.4158 26.6262 21.8137 26.4795 22.2528 26.1788C25.2484 24.1558 26.7948 23.1337 26.892 23.1117C26.9608 23.0961 27.0561 23.0759 27.1202 23.1337C27.1844 23.1905 27.178 23.2987 27.1716 23.328C27.1294 23.5049 25.4849 25.0348 24.6324 25.8268C24.3666 26.0734 24.1787 26.2485 24.1402 26.2888C24.054 26.3778 23.966 26.463 23.8817 26.5446C23.3592 27.0469 22.9687 27.4246 23.9037 28.0406C24.3528 28.3367 24.7122 28.5814 25.0706 28.8253C25.462 29.092 25.8525 29.3578 26.3585 29.6897C26.4868 29.774 26.6097 29.8611 26.7298 29.9463C27.1853 30.2717 27.5951 30.5632 28.1011 30.5174C28.3944 30.4899 28.6987 30.214 28.8527 29.3899C29.2167 27.4411 29.9335 23.2208 30.0994 21.4809C30.1095 21.3365 30.1034 21.1913 30.0811 21.0483C30.0677 20.9327 30.0115 20.8264 29.9234 20.7503C29.7923 20.6431 29.5888 20.6202 29.4972 20.622C29.0838 20.6293 28.4494 20.8503 25.3942 22.1208Z" fill="#F3F3F3"/>
</g>
<defs>
<clipPath id="clip0_3400_2615">
<rect width="22" height="22" fill="white" transform="translate(14 14)"/>
</clipPath>
</defs>
</svg>
