<svg width="50" height="50" viewBox="0 0 50 50" fill="none" xmlns="http://www.w3.org/2000/svg">
<rect width="50" height="50" rx="2" fill="#0154BB"/>
<path fill-rule="evenodd" clip-rule="evenodd" d="M24.2365 31.9851H25.6136C25.6136 31.9851 26.0152 31.9279 26.2448 31.6991C26.4456 31.4989 26.4456 31.0985 26.4456 31.0985C26.4456 31.0985 26.4169 29.268 27.2776 28.982C28.1095 28.7245 29.1997 30.7553 30.3473 31.5275C31.208 32.1281 31.8678 31.9851 31.8678 31.9851L34.9375 31.9565C34.9375 31.9565 36.5441 31.8707 35.7695 30.6122C35.7121 30.4978 35.3392 29.6684 33.5031 27.9809C31.5809 26.2076 31.8391 26.4936 34.1629 23.4046C35.5687 21.5455 36.1425 20.4015 35.9703 19.8866C35.7982 19.429 34.7654 19.5434 34.7654 19.5434L31.3227 19.572C31.3227 19.572 31.0645 19.5434 30.8637 19.6578C30.6342 19.8008 30.5194 20.0583 30.5194 20.0583C30.5194 20.0583 29.9743 21.5169 29.2571 22.7468C27.7079 25.3496 27.1054 25.4926 26.8472 25.3209C26.2735 24.9491 26.4169 23.8051 26.4169 23.0042C26.4169 20.4873 26.7899 19.429 25.671 19.1716C25.298 19.0858 25.0111 19.0286 24.0644 19C22.8308 19 21.798 19 21.1955 19.286C20.7938 19.4862 20.507 19.9153 20.6791 19.9153C20.9086 19.9439 21.425 20.0583 21.6832 20.4301C22.0275 20.9163 22.0275 21.9746 22.0275 21.9746C22.0275 21.9746 22.2283 24.9491 21.5398 25.3209C21.0807 25.5784 20.4496 25.0635 19.0725 22.6896C18.384 21.4883 17.8389 20.1441 17.8389 20.1441C17.8389 20.1441 17.7241 19.8866 17.552 19.7722C17.4085 19.6578 17.1217 19.572 16.8061 19.572L13.7364 19.6006C13.7364 19.6006 13.2486 19.6006 13.0765 19.8294C12.9044 20.0297 13.0765 20.4015 13.0765 20.4015C13.0765 20.4015 15.6585 26.3792 18.5561 29.3824C21.2242 32.1853 24.2365 31.9851 24.2365 31.9851Z" fill="#F3F3F3"/>
</svg>
