<svg width="50" height="50" viewBox="0 0 50 50" fill="none" xmlns="http://www.w3.org/2000/svg">
<rect width="50" height="50" rx="2" fill="#6ECB03"/>
<path d="M33.1602 19.8402C30.2802 15.4002 24.4002 14.0802 19.8402 16.8402C15.4002 19.6002 13.9602 25.6002 16.8402 30.0402L17.0802 30.4002L16.1202 34.0002L19.7202 33.0402L20.0802 33.2802C21.6402 34.1202 23.3202 34.6002 25.0002 34.6002C26.8002 34.6002 28.6002 34.1202 30.1602 33.1602C34.6002 30.2802 35.9202 24.4002 33.1602 19.8402ZM30.6402 29.0802C30.1602 29.8002 29.5602 30.2802 28.7202 30.4002C28.2402 30.4002 27.6402 30.6402 25.2402 29.6802C23.2002 28.7202 21.5202 27.1602 20.3202 25.3602C19.6002 24.5202 19.2402 23.4402 19.1202 22.3602C19.1202 21.4002 19.4802 20.5602 20.0802 19.9602C20.3202 19.7202 20.5602 19.6002 20.8002 19.6002H21.4002C21.6402 19.6002 21.8802 19.6002 22.0002 20.0802C22.2402 20.6802 22.8402 22.1202 22.8402 22.2402C22.9602 22.3602 22.9602 22.6002 22.8402 22.7202C22.9602 22.9602 22.8402 23.2002 22.7202 23.3202C22.6002 23.4402 22.4802 23.6802 22.3602 23.8002C22.1202 23.9202 22.0002 24.1602 22.1202 24.4002C22.6002 25.1202 23.2002 25.8402 23.8002 26.4402C24.5202 27.0402 25.2402 27.5202 26.0802 27.8802C26.3202 28.0002 26.5602 28.0002 26.6802 27.7602C26.8002 27.5202 27.4002 26.9202 27.6402 26.6802C27.8802 26.4402 28.0002 26.4402 28.2402 26.5602L30.1602 27.5202C30.4002 27.6402 30.6402 27.7602 30.7602 27.8802C30.8802 28.2402 30.8802 28.7202 30.6402 29.0802Z" fill="#F3F3F3"/>
</svg>
